# xmcd
#
# Track frame offsets: 
#        150
#        13299
#        26044
#        41497
#        54218
#        66741
#        81928
#        96744
#        111438
#        124270
#        136746
#        149963
#        162240
#        176869
#        188766
#        202606
#        216935
#        233211
#        248916
#        263724
#        276990
#        290389
#        303723
#        317155
#        328781
#
# Disc length: 4569 seconds
#
# Revision: 1
# Processed by: cddbd v1.5.2PL0 Copyright (c) Steve Scherf et al.
# Submitted via: ExactAudioCopy v0.95b4
#
DISCID=9011d719
DTITLE=The Carter Family - Country Folk - Disc 1: Keep On The Sunny Si
DTITLE=de
DYEAR=2007
DGENRE=Country
TTITLE0=Bury Me Under The Weeping Willow
TTITLE1=Little Log Cabin By The Sea
TTITLE2=The Poor Orphan Child
TTITLE3=The Storms Are On The Ocean
TTITLE4=Single Girl, Married Girl
TTITLE5=The Wandering Boy
TTITLE6=Meet By The Moonlight Alone
TTITLE7=Little Darling Pal Of Mine
TTITLE8=Keep On The Sunny Side
TTITLE9=Anchored In Love
TTITLE10=John Hardy Was A Desperate Little Man
TTITLE11=I Ain't Gonna Work Tomorrow
TTITLE12=Will You Miss Me When I'm Gone
TTITLE13=River Of Jordan
TTITLE14=Chewing Gum
TTITLE15=Wildwood Flower
TTITLE16=Motherless Children
TTITLE17=When The Roses Bloom In Dixieland
TTITLE18=No Telephone In Heaven
TTITLE19=The Western Hobo
TTITLE20=Carter's Blues
TTITLE21=Wabash Cannonball
TTITLE22=A Distant Land To Roam
TTITLE23=Jimmie Brown The Newsboy
TTITLE24=Kitty Waltz
EXTD=
EXTT0=
EXTT1=
EXTT2=
EXTT3=
EXTT4=
EXTT5=
EXTT6=
EXTT7=
EXTT8=
EXTT9=
EXTT10=
EXTT11=
EXTT12=
EXTT13=
EXTT14=
EXTT15=
EXTT16=
EXTT17=
EXTT18=
EXTT19=
EXTT20=
EXTT21=
EXTT22=
EXTT23=
EXTT24=
PLAYORDER=
